<svg width="194" height="86" viewBox="0 0 194 86" fill="none" xmlns="http://www.w3.org/2000/svg">
<path d="M14.6312 67.346C14.6312 67.1887 14.6312 66.933 14.6312 66.579C14.6705 66.225 14.6902 65.8513 14.6902 65.458C14.7295 65.0647 14.7688 64.7107 14.8082 64.396C14.8475 64.0813 14.8868 63.865 14.9262 63.747C14.6115 63.8257 14.4345 63.9043 14.3952 63.983C14.3952 64.0617 14.3165 64.2387 14.1592 64.514C13.9232 65.0647 13.8248 65.5957 13.8642 66.107C13.9428 66.6183 14.1985 67.0313 14.6312 67.346ZM19.3512 12.535C19.3512 11.3943 19.4298 10.3127 19.5872 9.29C19.7838 8.228 19.8822 7.14633 19.8822 6.045C19.8822 5.61233 19.9215 5.08133 20.0002 4.452C20.0788 3.82266 20.1378 3.25233 20.1772 2.741C20.2165 2.30833 20.2362 1.99366 20.2362 1.797C20.2362 1.561 20.2558 1.36433 20.2952 1.207C20.3345 1.04967 20.4132 0.911998 20.5312 0.793997C20.6492 0.675999 20.8655 0.538332 21.1802 0.380999C21.4948 0.577665 21.7505 0.774332 21.9472 0.970998C22.1832 1.12833 22.3012 1.46267 22.3012 1.974C22.3012 2.918 22.2815 3.78333 22.2422 4.57C22.2422 5.35666 22.2028 6.12366 22.1242 6.871C22.0848 7.579 22.0258 8.30666 21.9472 9.054C21.9078 9.762 21.8488 10.5487 21.7702 11.414C22.0848 11.3353 22.4782 11.1977 22.9502 11.001C23.4615 10.765 23.8942 10.588 24.2482 10.47C26.8835 9.408 29.7155 8.38533 32.7442 7.402C35.8122 6.37933 38.7622 5.59267 41.5942 5.042C42.0662 4.924 42.8332 4.76666 43.8952 4.57C44.9572 4.37333 46.1765 4.19633 47.5532 4.039C48.9298 3.84233 50.3852 3.685 51.9192 3.567C53.4532 3.40967 54.9085 3.331 56.2852 3.331C58.2518 3.331 59.9038 3.508 61.2412 3.862C62.6178 4.216 63.3062 4.88466 63.3062 5.868C63.3062 7.00866 62.8932 7.85433 62.0672 8.405C61.2805 8.95566 60.4938 9.27033 59.7072 9.349C59.9038 8.79833 60.2185 8.24767 60.6512 7.697C61.0838 7.14633 61.3395 6.59567 61.4182 6.045C60.9068 5.96633 60.4348 5.868 60.0022 5.75C59.6088 5.632 59.0778 5.573 58.4092 5.573C56.4032 5.573 54.6725 5.59267 53.2172 5.632C51.7618 5.67133 50.3458 5.76966 48.9692 5.927C47.6318 6.08433 46.2355 6.30066 44.7802 6.576C43.3642 6.85133 41.6728 7.225 39.7062 7.697C39.4308 7.77567 38.8015 7.97233 37.8182 8.287C36.8742 8.56233 35.7532 8.91633 34.4552 9.349C33.1572 9.74233 31.7608 10.1947 30.2662 10.706C28.8108 11.178 27.4538 11.65 26.1952 12.122C24.9758 12.594 23.9335 13.0267 23.0682 13.42C22.2028 13.774 21.7112 14.069 21.5932 14.305L19.7052 32.831C19.6658 33.3817 19.5872 33.9913 19.4692 34.66C19.3905 35.2893 19.3512 35.899 19.3512 36.489C19.7838 36.4103 20.4525 36.194 21.3572 35.84C22.3012 35.486 23.0682 35.2107 23.6582 35.014C24.1695 34.8567 24.8185 34.66 25.6052 34.424C26.4312 34.188 27.2768 33.9717 28.1422 33.775C29.0075 33.539 29.8335 33.3227 30.6202 33.126C31.4462 32.9293 32.1345 32.8113 32.6852 32.772C33.5112 32.654 34.1995 32.595 34.7502 32.595C35.7728 32.595 36.3825 32.7917 36.5792 33.185C36.7758 33.5783 36.7758 34.1683 36.5792 34.955C36.3825 34.9943 36.2448 35.0337 36.1662 35.073C36.0875 35.073 35.9105 35.0927 35.6352 35.132C35.5958 34.896 35.5368 34.719 35.4582 34.601C35.3795 34.4437 35.2025 34.365 34.9272 34.365C34.1798 34.365 33.1768 34.5027 31.9182 34.778C30.6988 35.014 29.4008 35.3287 28.0242 35.722C26.6868 36.076 25.3888 36.4693 24.1302 36.902C22.8715 37.2953 21.8488 37.6493 21.0622 37.964C20.7475 38.082 20.4328 38.2 20.1182 38.318C19.8428 38.436 19.5282 38.5147 19.1742 38.554L17.2862 59.204C17.7582 59.1647 18.2892 58.968 18.8792 58.614C19.4692 58.2993 19.9805 58.0437 20.4132 57.847C22.0258 57.139 23.6975 56.5293 25.4282 56.018C27.1982 55.546 28.9682 55.1723 30.7382 54.897C31.0922 54.8183 31.8002 54.7003 32.8622 54.543C33.9635 54.425 35.2418 54.2873 36.6972 54.13C38.1918 53.9727 39.7848 53.835 41.4762 53.717C43.2068 53.6383 44.8785 53.599 46.4912 53.599C47.6318 53.599 48.6938 53.6383 49.6772 53.717C50.6998 53.7957 51.5848 53.9137 52.3322 54.071C53.1188 54.2677 53.7285 54.5037 54.1612 54.779C54.5938 55.0543 54.8102 55.4083 54.8102 55.841C54.8102 56.1557 54.7905 56.372 54.7512 56.49C54.7512 56.608 54.7315 56.6867 54.6922 56.726C54.6528 56.7653 54.5938 56.8047 54.5152 56.844C54.4365 56.9227 54.3185 57.0603 54.1612 57.257C54.0038 57.139 53.8858 57.021 53.8072 56.903C53.7678 56.785 53.6695 56.6473 53.5122 56.49C53.3548 56.372 53.1188 56.254 52.8042 56.136C52.4895 56.018 52.0175 55.9 51.3882 55.782C50.0902 55.546 48.3202 55.428 46.0782 55.428C44.0722 55.428 41.9875 55.487 39.8242 55.605C37.7002 55.723 35.5565 55.9393 33.3932 56.254C31.2298 56.5687 29.1058 56.9817 27.0212 57.493C24.9758 58.0437 23.0485 58.7123 21.2392 59.499C20.8458 59.6563 20.5115 59.794 20.2362 59.912C20.0002 60.03 19.7052 60.1873 19.3512 60.384C19.0365 60.5413 18.7218 60.679 18.4072 60.797C18.0925 60.9543 17.8368 61.092 17.6402 61.21C17.4042 61.3673 17.2272 61.6427 17.1092 62.036C16.9912 62.4293 16.8928 62.862 16.8142 63.334C16.7748 63.806 16.7552 64.278 16.7552 64.75C16.7552 65.2613 16.7355 65.7137 16.6962 66.107C16.5782 67.4443 16.3422 68.3687 15.9882 68.88C15.6735 69.3913 15.2998 69.647 14.8672 69.647C14.5525 69.647 14.2378 69.529 13.9232 69.293C13.6085 69.057 13.3135 68.762 13.0382 68.408C12.7628 68.0933 12.5465 67.7393 12.3892 67.346C12.2318 66.992 12.1532 66.6773 12.1532 66.402C12.1532 65.2613 12.2712 64.3763 12.5072 63.747C12.7825 63.157 13.0775 62.685 13.3922 62.331C13.7462 62.0163 14.0805 61.741 14.3952 61.505C14.7098 61.3083 14.9262 61.033 15.0442 60.679C15.0835 60.5217 15.1228 60.1087 15.1622 59.44C15.2408 58.8107 15.2998 58.1027 15.3392 57.316C15.4178 56.5293 15.4768 55.782 15.5162 55.074C15.5555 54.366 15.5752 53.894 15.5752 53.658C15.5752 53.186 15.5948 52.891 15.6342 52.773C15.6735 52.6943 15.7128 52.4387 15.7522 52.006C15.7522 51.6913 15.7325 51.3767 15.6932 51.062C15.6932 50.7867 15.7128 50.4917 15.7522 50.177L16.5192 39.675L11.5632 42.212C11.5238 42.212 11.2682 42.3693 10.7962 42.684C10.3635 42.9593 9.95051 43.097 9.55718 43.097C9.16384 43.097 8.96718 42.8413 8.96718 42.33C8.96718 42.094 9.10484 41.8383 9.38018 41.563C9.69484 41.2877 10.0488 41.0123 10.4422 40.737C10.8355 40.4617 11.2288 40.206 11.6222 39.97C12.0155 39.734 12.3105 39.5767 12.5072 39.498L16.8732 37.433C16.8732 36.4103 16.9125 35.4467 16.9912 34.542C17.0698 33.6373 17.1682 32.6933 17.2862 31.71L18.9382 15.19C18.5448 15.3867 18.1515 15.5833 17.7582 15.78C17.3648 15.9767 16.9518 16.1537 16.5192 16.311L9.49818 19.969C8.71151 20.4017 7.94451 20.854 7.19718 21.326C6.48918 21.7587 5.76151 22.2307 5.01418 22.742C4.81751 22.86 4.62084 22.978 4.42418 23.096C4.26684 23.214 4.07018 23.3517 3.83418 23.509C3.63751 23.6663 3.48018 23.7843 3.36218 23.863C3.28351 23.9417 3.12618 24.0597 2.89018 24.217C2.41818 24.453 2.04451 24.571 1.76918 24.571C1.21851 24.571 0.943177 24.276 0.943177 23.686C0.943177 23.2533 1.55284 22.6043 2.77218 21.739C3.99151 20.8343 5.36818 19.9297 6.90218 19.025C8.47551 18.081 9.97018 17.2353 11.3862 16.488C12.8415 15.7013 13.7855 15.19 14.2182 14.954L19.3512 12.535ZM125.811 38.259C126.677 38.0623 127.542 37.7673 128.407 37.374C129.273 36.9413 130.197 36.725 131.18 36.725C131.259 36.725 131.338 36.7447 131.416 36.784C131.534 36.784 131.633 36.784 131.711 36.784C133.442 36.902 134.799 37.4527 135.782 38.436C136.766 39.4193 137.493 40.6387 137.965 42.094C138.437 43.5493 138.732 45.1227 138.85 46.814C138.968 48.5053 139.027 50.1573 139.027 51.77C139.263 51.7307 139.558 51.5733 139.912 51.298C140.306 51.062 140.699 50.7867 141.092 50.472C141.486 50.1967 141.859 49.9213 142.213 49.646C142.567 49.3313 142.843 49.0953 143.039 48.938L145.871 46.578C146.619 45.9487 147.484 45.1227 148.467 44.1C149.49 43.0773 150.355 42.1923 151.063 41.445C151.614 40.855 151.968 40.4027 152.125 40.088C152.322 39.734 152.814 39.557 153.6 39.557H153.954C154.072 40.029 154.131 40.3633 154.131 40.56C154.131 40.7173 153.974 40.9927 153.659 41.386C153.463 41.7007 153.286 41.9563 153.128 42.153C152.971 42.3497 152.755 42.5463 152.479 42.743C152.283 43.0577 152.125 43.3133 152.007 43.51C151.889 43.6673 151.673 43.864 151.358 44.1C151.044 44.5327 150.67 44.9063 150.237 45.221L145.281 49.823C144.849 50.2557 144.416 50.6293 143.983 50.944C143.551 51.298 143.098 51.652 142.626 52.006C141.564 52.7927 140.758 53.3433 140.207 53.658C139.696 54.012 139.322 54.307 139.086 54.543C138.89 54.779 138.752 55.074 138.673 55.428C138.634 55.782 138.516 56.3917 138.319 57.257C137.533 61.4263 136.215 65.399 134.366 69.175C132.518 72.9903 130.079 76.4123 127.05 79.441C124.887 81.6043 122.743 83.158 120.619 84.102C118.495 85.0853 116.548 85.577 114.778 85.577C113.323 85.577 112.045 85.282 110.943 84.692C109.842 84.102 108.996 83.2957 108.406 82.273C107.856 81.2503 107.6 80.031 107.639 78.615C107.679 77.2383 108.111 75.7437 108.937 74.131C109.724 72.6363 110.707 71.24 111.887 69.942C113.067 68.644 114.306 67.4837 115.604 66.461C117.099 65.3203 118.554 64.2583 119.97 63.275C121.426 62.331 122.861 61.4263 124.277 60.561C125.733 59.735 127.208 58.8893 128.702 58.024C130.197 57.198 131.731 56.3327 133.304 55.428C134.209 54.9167 134.897 54.543 135.369 54.307C135.841 54.071 136.156 53.6777 136.313 53.127V52.95C136.51 51.8093 136.608 50.4523 136.608 48.879C136.608 47.2663 136.431 45.752 136.077 44.336C135.763 42.8807 135.212 41.6417 134.425 40.619C133.639 39.5963 132.557 39.085 131.18 39.085C130.551 39.085 129.882 39.203 129.174 39.439C127.955 39.8323 126.972 40.2257 126.224 40.619C125.477 41.0123 124.828 41.4253 124.277 41.858C123.766 42.2513 123.274 42.6643 122.802 43.097C122.37 43.4903 121.819 43.9033 121.15 44.336C121.032 44.4147 120.934 44.4933 120.855 44.572C120.816 44.6113 120.698 44.631 120.501 44.631C120.423 44.631 120.344 44.631 120.265 44.631C120.226 44.5917 120.167 44.572 120.088 44.572C119.616 44.4933 119.341 44.3163 119.262 44.041C119.184 43.7263 119.203 43.392 119.321 43.038C119.439 42.684 119.616 42.33 119.852 41.976C120.128 41.622 120.344 41.3467 120.501 41.15C120.698 40.8353 120.875 40.56 121.032 40.324C121.229 40.088 121.426 39.8323 121.622 39.557C123.196 37.2757 124.769 35.073 126.342 32.949C127.916 30.7857 129.41 28.4847 130.826 26.046C131.298 25.22 131.849 24.099 132.478 22.683C133.147 21.267 133.757 19.733 134.307 18.081C134.858 16.429 135.271 14.777 135.546 13.125C135.861 11.4337 135.881 9.91933 135.605 8.582C135.33 7.166 134.76 6.458 133.894 6.458C133.147 6.458 132.301 6.85133 131.357 7.638C130.413 8.42467 129.489 9.349 128.584 10.411C127.68 11.4337 126.834 12.476 126.047 13.538C125.3 14.6 124.749 15.4063 124.395 15.957C122.979 18.2383 121.622 20.7163 120.324 23.391C119.066 26.0657 117.905 28.819 116.843 31.651C115.781 34.4437 114.798 37.2757 113.893 40.147C113.028 42.979 112.261 45.693 111.592 48.289C111.199 49.823 110.806 51.298 110.412 52.714C110.019 54.1693 109.665 55.7033 109.35 57.316L108.229 64.809C108.111 65.3203 107.993 65.6547 107.875 65.812C107.757 65.9693 107.482 66.1463 107.049 66.343C106.302 66.1857 105.909 65.8907 105.869 65.458C105.83 65.0647 105.85 64.4747 105.928 63.688L107.049 52.596C107.482 47.5613 108.033 42.6447 108.701 37.846C109.409 33.008 110.019 28.111 110.53 23.155C110.727 21.9357 110.884 20.6967 111.002 19.438C111.16 18.1793 111.238 16.9403 111.238 15.721C111.238 15.0917 111.258 14.3837 111.297 13.597C111.337 12.771 111.317 12.0827 111.238 11.532C111.12 10.8633 111.002 10.293 110.884 9.821C110.806 9.30967 110.688 8.77867 110.53 8.228C109.862 8.30667 109.311 8.66066 108.878 9.29C108.446 9.91933 108.072 10.5093 107.757 11.06C106.105 13.538 104.689 16.311 103.509 19.379C102.329 22.4077 101.523 25.4363 101.09 28.465C100.933 29.527 100.835 30.7463 100.795 32.123C100.756 33.4997 100.894 34.66 101.208 35.604C101.444 36.194 101.72 36.548 102.034 36.666C102.349 36.784 102.644 36.8627 102.919 36.902C103.234 36.9413 103.45 37.0397 103.568 37.197C103.726 37.315 103.745 37.669 103.627 38.259C103.116 38.377 102.624 38.436 102.152 38.436C101.523 38.436 101.012 38.2983 100.618 38.023C100.264 37.7083 99.93 37.256 99.6153 36.666C99.104 35.5253 98.8483 34.2863 98.8483 32.949C98.8483 31.6117 98.927 30.3137 99.0843 29.055C99.281 27.049 99.6546 25.102 100.205 23.214C100.795 21.326 101.425 19.4577 102.093 17.609L103.922 13.597C104.119 13.1643 104.453 12.5153 104.925 11.65C105.397 10.7453 105.928 9.86033 106.518 8.995C107.148 8.12967 107.797 7.38233 108.465 6.753C109.173 6.08433 109.881 5.75 110.589 5.75C111.258 5.75 111.848 6.08433 112.359 6.753C112.871 7.38233 113.225 8.11 113.421 8.936C113.657 9.72266 113.815 10.5683 113.893 11.473C113.972 12.3383 113.992 13.2233 113.952 14.128C113.952 15.0327 113.952 15.8783 113.952 16.665C113.952 17.6877 113.893 18.5923 113.775 19.379C113.697 20.1657 113.618 21.031 113.539 21.975C113.461 23.745 113.303 25.4953 113.067 27.226C112.831 28.9173 112.576 30.648 112.3 32.418L111.415 40.029C111.337 40.5403 111.258 40.9927 111.179 41.386C111.101 41.74 111.061 42.153 111.061 42.625C111.337 42.271 111.533 41.8383 111.651 41.327C111.769 40.8157 111.887 40.3633 112.005 39.97L112.831 37.315C113.107 36.4103 113.402 35.545 113.716 34.719C114.031 33.8537 114.346 32.9687 114.66 32.064C115.408 29.9007 116.293 27.5997 117.315 25.161C118.377 22.7223 119.577 20.323 120.914 17.963C122.252 15.603 123.707 13.3807 125.28 11.296C126.893 9.172 128.604 7.36266 130.413 5.868C131.672 4.76667 132.931 4.216 134.189 4.216C135.133 4.216 135.959 4.60933 136.667 5.396C137.375 6.14333 137.867 7.30366 138.142 8.877C138.418 10.529 138.378 12.299 138.024 14.187C137.71 16.0357 137.198 17.8843 136.49 19.733C135.822 21.5817 135.035 23.391 134.13 25.161C133.226 26.931 132.341 28.524 131.475 29.94C131.161 30.412 130.708 31.061 130.118 31.887C129.568 32.6737 128.997 33.4997 128.407 34.365C127.817 35.191 127.267 35.9777 126.755 36.725C126.283 37.433 125.969 37.9443 125.811 38.259ZM114.66 83.571C115.526 83.571 116.411 83.4137 117.315 83.099C118.22 82.8237 118.967 82.5287 119.557 82.214C121.209 81.388 122.704 80.3653 124.041 79.146C125.418 77.966 126.637 76.6483 127.699 75.193C128.801 73.777 129.784 72.2627 130.649 70.65C131.554 69.0767 132.38 67.464 133.127 65.812C133.324 65.3793 133.56 64.7303 133.835 63.865C134.15 63.039 134.445 62.154 134.72 61.21C135.035 60.3053 135.291 59.4203 135.487 58.555C135.684 57.729 135.782 57.08 135.782 56.608L122.271 64.337L117.079 68.113C116.411 68.6637 115.624 69.3717 114.719 70.237C113.815 71.1023 113.087 71.889 112.536 72.597C111.356 74.131 110.57 75.5667 110.176 76.904C109.783 78.2413 109.704 79.4017 109.94 80.385C110.216 81.3683 110.766 82.1353 111.592 82.686C112.418 83.276 113.441 83.571 114.66 83.571Z" fill="#F16623"/>
<path d="M65.7789 50H60.7989L60.8303 46.3239H65.7789C67.0148 46.3239 68.0569 46.0463 68.9052 45.4913C69.7535 44.9257 70.3924 44.1035 70.8218 43.0248C71.2617 41.946 71.4816 40.6421 71.4816 39.113V37.9976C71.4816 36.8246 71.356 35.793 71.1046 34.9028C70.8637 34.0125 70.5024 33.2637 70.0206 32.6563C69.5388 32.0488 68.9471 31.5932 68.2454 31.2895C67.5437 30.9753 66.7372 30.8182 65.8261 30.8182H60.7046V27.1264H65.8261C67.3552 27.1264 68.7533 27.3882 70.0206 27.9119C71.2984 28.425 72.4033 29.1634 73.3354 30.127C74.2675 31.0905 74.9849 32.2426 75.4877 33.5831C76.0009 34.9132 76.2574 36.3952 76.2574 38.029V39.113C76.2574 40.7364 76.0009 42.2184 75.4877 43.5589C74.9849 44.8995 74.2675 46.0516 73.3354 47.0151C72.4138 47.9682 71.3088 48.7066 70.0206 49.2302C68.7429 49.7434 67.329 50 65.7789 50ZM63.4696 27.1264V50H58.7566V27.1264H63.4696ZM92.313 27.1264H97.0103V42.2393C97.0103 43.9988 96.6332 45.4808 95.8791 46.6852C95.1355 47.8896 94.1039 48.7956 92.7843 49.403C91.4751 50.0105 89.967 50.3142 88.2598 50.3142C86.5527 50.3142 85.0341 50.0105 83.704 49.403C82.3843 48.7956 81.3475 47.8896 80.5934 46.6852C79.8498 45.4808 79.478 43.9988 79.478 42.2393V27.1264H84.191V42.2393C84.191 43.2657 84.3533 44.1035 84.678 44.7529C85.0026 45.4022 85.4687 45.8788 86.0761 46.1825C86.6941 46.4862 87.422 46.6381 88.2598 46.6381C89.1186 46.6381 89.8465 46.4862 90.4435 46.1825C91.051 45.8788 91.5118 45.4022 91.826 44.7529C92.1507 44.1035 92.313 43.2657 92.313 42.2393V27.1264ZM162.968 31.0381L156.747 50H151.736L160.235 27.1264H163.424L162.968 31.0381ZM168.137 50L161.9 31.0381L161.397 27.1264H164.618L173.164 50H168.137ZM167.854 41.4852V45.1771H155.773V41.4852H167.854ZM179.998 27.1264V50H175.285V27.1264H179.998ZM193.697 27.1264L184.632 38.4218L179.401 44.0459L178.552 39.5843L182.087 34.7457L187.916 27.1264H193.697ZM188.34 50L181.6 39.4272L185.088 36.5052L193.917 50H188.34Z" fill="#24292D"/>
</svg>
